<svg width="428" height="385" viewBox="0 0 428 385" fill="none" xmlns="http://www.w3.org/2000/svg">
<rect width="428" height="385" fill="black"/>
<path d="M98.8807 67.888C96.6849 63.8894 99.5781 59 104.14 59H327C330.314 59 333 61.6863 333 65V137C333 140.314 330.314 143 327 143H145.841C143.736 143 141.786 141.897 140.7 140.094L135.457 131.383L123.969 110.83L107.985 84.4681L98.8807 67.888Z" fill="#1CB7D8"/>
<path d="M327.425 143C333.34 143 335.687 150.655 330.787 153.969L229.5 222.5L121.362 295.666C117.378 298.361 112 295.507 112 290.696L112 222.5L112 149C112 145.686 114.686 143 118 143H229.5L327.425 143Z" fill="#E43ABF"/>
<rect x="161" y="202" width="172" height="84" rx="7" fill="#1CB7D8"/>
</svg>
